<?xml version="1.0" encoding="UTF-8"?>
<svg xmlns="http://www.w3.org/2000/svg" width="1024" height="1024" viewBox="0 0 1024 1024">
  <!-- Markdown Mark geometry: Dustin Curtis, CC0 1.0, https://github.com/dcurtis/markdown-mark -->
  <defs>
    <filter id="shadow" x="-20%" y="-20%" width="140%" height="150%">
      <feDropShadow dx="0" dy="28" stdDeviation="32" flood-color="#0b0b10" flood-opacity="0.24"/>
    </filter>
  </defs>
  <g filter="url(#shadow)">
    <path d="M230 72h420l224 224v590c0 44-36 80-80 80H230c-44 0-80-36-80-80V152c0-44 36-80 80-80z" fill="#f7f2e8" stroke="#1e1b2e" stroke-width="36" stroke-linejoin="round"/>
    <path d="M650 72v154c0 39 31 70 70 70h154z" fill="#e8a030" stroke="#1e1b2e" stroke-width="36" stroke-linejoin="round"/>
    <rect x="218" y="400" width="588" height="336" rx="56" fill="#1e1b2e"/>
    <g transform="translate(240 430) scale(2.8)" fill="#f7f2e8">
      <path d="M30 98V30h20l20 25 20-25h20v68H90V59L70 84 50 59v39z"/>
      <path d="M155 99l-31-34h21V30h20v35h20z"/>
    </g>
  </g>
</svg>
